name rise31.4854peak64.571fall78.6902.mot
datacolumns 19
datarows 17
range 7.33497200000000 7.36163900000000
endheader
time	ground_force1_vx	ground_force1_vy	ground_force1_vz	ground_force1_px	ground_force1_py	ground_force1_pz	ground_force2_vx	ground_force2_vy	ground_force2_vz	ground_force2_px	ground_force2_py	ground_force2_pz	ground_torque1_x	ground_torque1_y	ground_torque1_z	ground_torque2_x	ground_torque2_y	ground_torque2_z	
7.33497200000000	-10.30277200000000	46.70075400000000	-12.77864000000000	0.31213300000000	0.00000000000000	0.08167600000000	-50.46268200000000	780.84401300000002	-51.35524100000000	0.12521000000000	0.00000000000000	-0.09107800000000	0.00000000000000	-8.25945500000000	0.00000000000000	0.00000000000000	-21.15670300000000	0.00000000000000	
7.33663600000000	-11.05979800000000	53.66453700000000	-14.15714800000000	0.31740700000000	0.00000000000000	0.08246900000000	-50.95953100000000	778.43927299999996	-50.94455300000000	0.12461400000000	0.00000000000000	-0.09097300000000	0.00000000000000	-9.25841800000000	0.00000000000000	0.00000000000000	-21.09246200000000	0.00000000000000	
7.33830500000000	-11.61981800000000	60.63417800000000	-15.39856600000000	0.32224300000000	0.00000000000000	0.08321000000000	-51.47675000000000	775.92948100000001	-50.51640400000000	0.12401800000000	0.00000000000000	-0.09086500000000	0.00000000000000	-10.18625700000000	0.00000000000000	0.00000000000000	-21.03089700000000	0.00000000000000	
7.33997700000000	-11.96753300000000	67.54349700000000	-16.48244500000000	0.32670300000000	0.00000000000000	0.08390600000000	-52.01430900000000	773.31224499999996	-50.07062800000000	0.12342500000000	0.00000000000000	-0.09075400000000	0.00000000000000	-11.02763100000000	0.00000000000000	0.00000000000000	-20.97200300000000	0.00000000000000	
7.34163800000000	-12.09772100000000	74.35017900000000	-17.39797600000000	0.33083700000000	0.00000000000000	0.08456300000000	-52.57206000000000	770.58508099999995	-49.60706800000000	0.12283200000000	0.00000000000000	-0.09063900000000	0.00000000000000	-11.77337900000000	0.00000000000000	0.00000000000000	-20.91574900000000	0.00000000000000	
7.34330400000000	-12.01430800000000	81.03552100000000	-18.14338500000000	0.33468700000000	0.00000000000000	0.08518700000000	-53.14973000000000	767.74541799999997	-49.12558100000000	0.12224200000000	0.00000000000000	-0.09052100000000	0.00000000000000	-12.42028400000000	0.00000000000000	0.00000000000000	-20.86208200000000	0.00000000000000	
7.34497600000000	-11.72884100000000	87.60227600000000	-18.72469300000000	0.33828800000000	0.00000000000000	0.08578200000000	-53.74692100000000	764.79060400000003	-48.62603400000000	0.12165400000000	0.00000000000000	-0.09039900000000	0.00000000000000	-12.97038700000000	0.00000000000000	0.00000000000000	-20.81092000000000	0.00000000000000	
7.34664200000000	-11.25860200000000	94.07109100000000	-19.15405300000000	0.34166800000000	0.00000000000000	0.08635100000000	-54.36310500000000	761.71791199999996	-48.10831300000000	0.12106800000000	0.00000000000000	-0.09027300000000	0.00000000000000	-13.42999200000000	0.00000000000000	0.00000000000000	-20.76215800000000	0.00000000000000	
7.34830400000000	-10.62458300000000	100.47610100000000	-19.44787000000000	0.34485000000000	0.00000000000000	0.08689600000000	-54.99762400000000	758.52454699999998	-47.57232100000000	0.12048400000000	0.00000000000000	-0.09014400000000	0.00000000000000	-13.80848100000000	0.00000000000000	0.00000000000000	-20.71566500000000	0.00000000000000	
7.34997300000000	-9.84950400000000	106.86016300000000	-19.62490600000000	0.34785600000000	0.00000000000000	0.08742200000000	-55.64969000000000	755.20765800000004	-47.01798000000000	0.11990300000000	0.00000000000000	-0.09001100000000	0.00000000000000	-14.11708500000000	0.00000000000000	0.00000000000000	-20.67128400000000	0.00000000000000	
7.35164000000000	-8.95603400000000	113.27020300000000	-19.70451800000000	0.35070100000000	0.00000000000000	0.08792800000000	-56.31838000000000	751.76434300000005	-46.44523400000000	0.11932500000000	0.00000000000000	-0.08987500000000	0.00000000000000	-14.36771800000000	0.00000000000000	0.00000000000000	-20.62883400000000	0.00000000000000	
7.35330500000000	-7.96532200000000	119.75301500000000	-19.70515600000000	0.35340200000000	0.00000000000000	0.08841900000000	-57.00264100000000	748.19165999999996	-45.85405100000000	0.11875000000000	0.00000000000000	-0.08973500000000	0.00000000000000	-14.57195000000000	0.00000000000000	0.00000000000000	-20.58810900000000	0.00000000000000	
7.35497100000000	-6.89589600000000	126.35176900000000	-19.64318800000000	0.35597100000000	0.00000000000000	0.08889400000000	-57.70128600000000	744.48663999999997	-45.24442500000000	0.11817800000000	0.00000000000000	-0.08959100000000	0.00000000000000	-14.74018600000000	0.00000000000000	0.00000000000000	-20.54887700000000	0.00000000000000	
7.35664400000000	-5.76295600000000	133.10336799999999	-19.53208600000000	0.35841700000000	0.00000000000000	0.08935500000000	-58.41299700000000	740.64629500000001	-44.61638100000000	0.11760900000000	0.00000000000000	-0.08944300000000	0.00000000000000	-14.88107500000000	0.00000000000000	0.00000000000000	-20.51088500000000	0.00000000000000	
7.35830500000000	-4.57804300000000	140.03671600000001	-19.38197800000000	0.36075200000000	0.00000000000000	0.08980300000000	-59.13632800000000	736.66763300000002	-43.96997100000000	0.11704500000000	0.00000000000000	-0.08929200000000	0.00000000000000	-15.00115800000000	0.00000000000000	0.00000000000000	-20.47385600000000	0.00000000000000	
7.35997400000000	-3.34903900000000	147.17185100000000	-19.19953000000000	0.36298200000000	0.00000000000000	0.09024000000000	-59.86970400000000	732.54767100000004	-43.30528100000000	0.11648400000000	0.00000000000000	-0.08913700000000	0.00000000000000	-15.10473600000000	0.00000000000000	0.00000000000000	-20.43748800000000	0.00000000000000	
7.36163900000000	-2.08044700000000	154.51986199999999	-18.98810500000000	0.36511400000000	0.00000000000000	0.09066600000000	-60.61142500000000	728.28344800000002	-42.62243400000000	0.11592800000000	0.00000000000000	-0.08897800000000	0.00000000000000	-15.19393000000000	0.00000000000000	0.00000000000000	-20.40146300000000	0.00000000000000	
